<?xml version="1.0"?>
<svg xmlns="http://www.w3.org/2000/svg" id="Layer_35" enable-background="new 0 0 64 64" height="512px" viewBox="0 0 64 64" width="512px"><g><g><path d="m41 2c0 1.105-.895 2-2 2h-1c-1.105 0-2-.895-2-2h-7c-3.912 1.956-7.158 5.027-9.328 8.824l-.672 1.176h1l2.927-2.439c1.986-1.655 4.488-2.561 7.073-2.561v3h2v20h-1.147c-.567 3.657-.853 7.381-.853 11.083v.902c0 1.3.081 2.609.242 3.891.514 4.104.265 8.22-.739 12.233l-.48 1.921c-.015.06-.023.125-.023.189 0 .431.351.781.781.781h6.438c.43 0 .781-.35.781-.781 0-.064-.008-.129-.023-.191l-.479-1.919c-1.004-4.013-1.253-8.129-.739-12.233.16-1.283.241-2.591.241-3.891v-.902c0-3.702-.286-7.426-.853-11.083h-1.147v-20h2v-1c0-1.105.895-2 2-2h1c1.105 0 2 .895 2 2h4v-7zm-7 57h-2v-2h2z" data-original="#000000" class="active-path" data-old_color="#000000" fill="#FFFFFF"/></g></g> </svg>
